<?xml version="1.0" encoding="utf-8"?>
<!-- Generator: Adobe Illustrator 20.1.0, SVG Export Plug-In . SVG Version: 6.00 Build 0)  -->
<svg version="1.1" xmlns="http://www.w3.org/2000/svg" xmlns:xlink="http://www.w3.org/1999/xlink" x="0px" y="0px"
	 viewBox="0 0 50 50" style="enable-background:new 0 0 50 50;" xml:space="preserve">
<style type="text/css">
	.st0{fill:#49131A;}
	.st1{fill:#FFFFFF;}
	.st2{display:none;}
	.st3{display:inline;}
	.st4{fill:#48161B;}
	.st5{fill:#F9FCFD;}
</style>
<symbol  id="Grime_Vector_Pack_3" viewBox="-81 -86.5 162 173">
	<path class="st0" d="M-32.5-83.3c-0.6,0.4-0.9,1-1.4,1.6c-0.5,0.2-1.2,0.2-1.7,0.5c-4.9,3.9-10.6,5.7-14.6,10.4
		c-4.3,1.1-5.4,6.7-9.9,6.8c1.9-2.3,3.4-5.1,5.7-6.8c0.6-0.5,1.5-0.5,2.1-0.9c1.2-0.9,2.1-2.4,3.3-3.3c0.7-0.5,1.6-1,2.4-1.4
		c4.1-2.6,9.3-6.1,13.9-7.1C-32.4-83.5-32.1-83.4-32.5-83.3z"/>
	<path class="st0" d="M-76.7-27c0.3,0,0.7,0,0.7,0.2c0.1,2,0.2,4.1-1.4,5.4c0.9,0.2,0.6-0.8,1.7-0.5c0,1.4-0.9,2-2.1,1.7
		c-0.2,1.1-1.4,1.1-0.9,2.8h-0.7c0-5.8,1.2-12.7,3.3-18.4C-73.3-34.6-76.6-29.6-76.7-27z"/>
	<path class="st0" d="M-65.5,71.8c4.6-2.9,9.9,1.3,10.4,5.4c-0.8,8.5-11.9,7.5-12.8,0.5C-68.1,76.2-67.4,72.9-65.5,71.8z"/>
	<path class="st0" d="M-73.6-39.5c0.2,1.3-0.9,2.5-1.4,3.8c0-0.3-0.6-0.2-0.9-0.2c1.1-2.2,1-5.6,2.6-7.3c0.9-5.1,4.9-9.1,7.1-13.7
		c1.9-1.3,2.8-3.5,4.7-4.7c-0.3,1.9-2,2.4-2.1,4.5C-68.4-52.7-70-45.1-73.6-39.5z"/>
	<path class="st0" d="M-29.7-83.9c-0.9-0.4-1.6,0.5-1.9-0.5c2.3,0,4.4-2.1,7.3-2.1C-24.9-84.5-28.3-85.2-29.7-83.9z"/>
	<path class="st0" d="M64.1-50.8c2.1-0.2,3.5,0.3,4.5,1.2C67.3-48.8,65-49.8,64.1-50.8z"/>
	<path class="st0" d="M78.7-0.3c4.2,5.5,1.6,14,0.2,21.3c-1,5.3-3.4,10.3-4.3,14.6c-0.4,0.6-1.3,0.8-1.7,1.4
		c-2.8,10.6-8.5,18.4-15.4,25c-1.5-0.3-2.1-0.1-3.3-0.7c-0.2,0.4-0.7,0.6-0.5,1.4c-1.1-0.1-2.1-0.5-2.1,0.9c1.4-0.1,2.2-0.2,3.8-0.5
		c-0.5,0.8-0.8,0.6-0.5,1.9c-9.8,11-25.7,18.6-42.5,20.4C5.2,87-2.3,86.6-9.4,85.7c-2.9-0.4-5.5-2.4-8.7-1.9
		c-6.2-2.6-13-4.5-17.9-8.3c-0.6,0-0.5,0.4-0.9,0c-3-2.4-6.9-3.9-9.4-6.8c-5.5-3.3-9.4-8.3-14.2-12.3c-0.1-0.8,0.4-0.7,0-1.2
		c-2.9-1.2-3-3.9-4.5-6.4c0.6-0.1,0.7-0.7,0.9-1.2c-2.8-3-2.5-10.1-7.3-10.4c2.5-2.8-0.2-6.6-2.1-8.7c0.9-1-0.3-2-0.7-2.6
		c0.3-1.8-0.8-3.1-0.2-4.5c-1.4-3.2-4.6-4.7-3.8-8.3c-0.7-0.2-0.9,0.2-1.4,0.2c-0.1-0.5-0.5-0.8-0.9-0.9C-81.3,8-81,2.3-80.9-3.4
		c0-2.6,0.8-5,0.9-7.3c0.1-2.2-0.9-4.8,1.2-6.1c0.7,0-0.3,1.5,0.7,1.2c0.6-0.2,0.9-0.7,0.9-1.4c0.1-1-1.1-0.8-0.7-2.1
		c1.9-0.3,2.2,1.9,4,2.8c-0.2,0.7-0.2,0.7,0,1.4c0.7,0.8,1.4,0.2,1.9,1.2c-1-0.3-1.1,0.2-1.7,0.2c0.8,1.7,1.5,3.8,3.5,3.5
		c0.2,1.1-1.3,0.2-0.7,0.9c0.2-0.7,0.8,1.1,0,0.2c-0.2,0.7,1.4,1.7,2.6,1.9L-69-6.3c1.3,3.3-2.7,9,0.5,10.9c0,5.2-1.4,8.6-0.2,14.4
		c-0.1,0.8-1.2,0.5-1.2,1.4c0.2,0.7,1.1,0.7,1.2,1.7c1.3,3.7,1.2,6.8,1.7,10.4c0.5,3.7,3.9,6.2,3.3,10.4c1.6,1,2.4,3.6,2.4,5.4
		c1.8-0.4,3.9,0.2,4.5,1.7c-0.1,1.1-1.1,1.4-1.2,2.6c2.2,4.3,6.4,6.5,8.5,10.9c1.5-0.2,1.5,1.1,2.1,1.7C-36.4,73.4-20.6,79-3.7,78
		c0.4-0.3,0.8-0.6,0.9-1.2c1.5-0.3,2.8-0.8,4.5-0.9c2-2.2,6-2.2,9-3.5c4-1.8,8.5-4.1,12.5-5.7c5.7-2.2,12-4.2,16.1-7.8
		c4.6-4.1,5.8-10.2,8.5-15.8c1.1-2.3,2.4-4.2,3.3-6.6c-1.3,0.8-2.5,1.6-3.1,3.1c-0.7-0.2-0.7,0.4-1.4,0.2c-1.2,1.9-3.1,3-5.4,3.8
		c-1.5,2.4-5,3.1-7.6,4.2c-2,0.9-3.5,3.5-5.7,3.5c0-1.4,1.5-1.3,1.9-1.2c0.1-0.7-0.7-0.5-0.5-1.4c0.9-1.4,2.2-1.8,3.3-3.1
		c0.5-0.6,0.6-1.6,1.2-2.4c2.1-2.6,5.7-4.1,7.8-6.6c1.1-1.4,1.7-3.1,3.1-4.3c1-0.9,2.3-1.1,3.3-1.9c2-1.5,3.2-4.6,5.2-5.9
		c1.8-2.9,3.9-5.4,6.8-7.1c0.5-1.2,1-2.7,0.2-4c-2.4,1.3-3.1,4.4-5.2,6.1c-2.3,4.6-6.8,7-10.2,10.6c-0.6,0-0.7,0.4-1.4,0.2
		c-4.1,4-9.8,7.6-16.5,8.3c2.3-3.2,6.2-4.8,9.4-7.1c0.1-2.1,2.2-2.4,3.8-3.1c0.1-0.4-0.3-0.5-0.2-0.9C46.1,22.3,50.3,15,55.8,9.2
		c1-3,5.4-8.1,5.4-11.6c0-1.5-1.5-3.3-1.9-5.2c-0.3-1.3-0.3-2.6-0.5-3.8c-0.2-1.6-0.6-2.9-0.7-4.3c-0.2-2.9,1.3-5.7,1.2-8.5
		c-0.3-6.7-5.2-10.7-6.9-15.3c-4.2-3.1-6.7-8.1-11.7-10.6c-0.1-0.8-0.7-1-0.9-1.7c-5.2-1.9-8.1-5.8-14.9-5.7
		c-0.7-0.9-1.5-1.7-2.6-2.1c-2.5,0.6-4.6-1.2-5.9-1.7c-1.9-0.7-5.9-0.5-7.8-0.7c-8-1-18,0.7-25.3,2.6c-2,0.5-4.1,1.9-5.4,2.4
		c-3.1,1.1-5.6,0.4-6.6,3.1c-0.8-0.1-0.9-0.6-1.7-0.2c-2.9,2.1-6.2,3.9-9.2,5.2c-2.6,5-8.3,7-10.9,12c-5.5,3.1-7.5,9.8-11.8,14.2
		c-1.3-1.3,1.4-4.3-0.5-5.9c1-2.3,1.9-6.5,1.4-9.9c1.8-0.8,2.8-3.9,0.5-4.7c-0.1-1.9,2-4.3,1.7-6.4c1.4-0.4,2,0.1,2.4,1.2
		c1-1.2,1-3.5,1.7-5c1.3-0.3,1,1,2.1,0.9c0.4-0.8,1.3-1.1,2.1-1.4c-0.5-1.8,1.2-1.4,1.7-2.1c-0.3-0.1-0.5-0.3-0.7-0.5
		c1.6,0.8,1.4-1.3,1.9-1.9c1.1-1.3,3.8-2.1,3.3-4.5c1.8,0.5,1.3,1.7,2.4,2.1c0.9-1.7,1.8-1.1,3.5-2.6c0.4,0.9,1.6,2.2,1.4,2.8
		c0-1-1.2,0.2-1.2,0.7c1.1,2.3,0.2,4.6,0.5,6.6c2-1,2.2-3.7,3.8-5.2c-0.2-1.6-1.6-2.6-1.7-4.5c1.1-1.1,2.6-2.1,4.5-1.7
		c2.2-1.2,2.5-4.3,3.5-6.6c1.1-0.1,1.3-0.1,2.4-0.5c0-0.6,0-1.1,0.2-1.4c2.6-0.3,3.3,1.7,5.7,0.9c3.7,3.6,9.1,1.4,14.2,2.1
		c0.3,1.8,1.6,1.4,3.1,2.1c0.5-0.8-0.1-1.2,0.2-2.1c0.3-0.5,1.4-0.2,1.4-0.9c1.6,0.6,3.5,2,1.9,2.6c2,0.6,3.1,1.2,5,1.4
		c0.3-1,1.1-0.7,0.7-2.1c3.4,0.2,5.7,0.3,8.3,0.9c0.4-0.4,0.1-1.5,0.7-1.7c1.6-0.7,1.9,1.4,4,0.9c0.4-0.5,0.4-2-0.2-2.1
		c1.4-1,2.3,0.2,4.3,0c0.5,0.4,1.1,0.7,1.7,0.9c5.2,0.2,7.8,3.4,11.1,5.2c1.3,0.7,2.6,1.3,3.5,2.1c7.3,6.3,13,14.8,19.6,21.5
		c1.1,2.6,3.3,4.1,5,6.1c0.7-0.2,1-1.5,1.7-0.9c1.9,1.1,0.2,6,3.1,5.7c2.3-0.3,1.4-4.3,1.7-6.8c0.1-1.4,0.9-2.7,0.9-4
		c0-1.9-1-3.3,0.2-4.3c2.2,1.2,2.9,4.3,3.3,6.6c1.2,6.2,0.9,13.7,1.4,20.1c0,0.6,0.5,1.3,0.5,1.9c0,1.3-0.7,2.5-0.7,3.8
		C76.6-8.7,81.1-4.9,78.7-0.3z M-57.3-45.1c-0.8,0.1-0.6-0.8-1.4-0.7c-0.6,0.5-0.5,1.2-0.7,1.7c0.4,0.3,1.3-0.1,2.1,0.2
		C-57.5-44.7-57.5-44.4-57.3-45.1z M-37.9-52.9c-0.5,0.1-0.7,0.6-1.4,0.5c-0.1,0.4,0.2,1.2-0.5,0.9c0.8,0.8-0.6,0.6-0.5,1.4
		c0.8,0.1,1.1-0.3,1.7-0.5C-39.2-51.5-37.7-51.2-37.9-52.9z M-11-67.1c0,0.3,0,0.7-0.2,0.7c0.1,0.6,1,0.1,1.2,0
		C-10.3-66.7-10.4-67.1-11-67.1z"/>
	<path class="st0" d="M-15.5-67.1C-16.8-63.3-11.9-66.4-15.5-67.1L-15.5-67.1z"/>
</symbol>
<symbol  id="Grime_Vector_Pack_4" viewBox="-81 -86.5 162 173">
	<path class="st1" d="M-32.5-83.3c-0.6,0.4-0.9,1-1.4,1.6c-0.5,0.2-1.2,0.2-1.7,0.5c-4.9,3.9-10.6,5.7-14.6,10.4
		c-4.3,1.1-5.4,6.7-9.9,6.8c1.9-2.3,3.4-5.1,5.7-6.8c0.6-0.5,1.5-0.5,2.1-0.9c1.2-0.9,2.1-2.4,3.3-3.3c0.7-0.5,1.6-1,2.4-1.4
		c4.1-2.6,9.3-6.1,13.9-7.1C-32.4-83.5-32.1-83.4-32.5-83.3z"/>
	<path class="st1" d="M-76.7-27c0.3,0,0.7,0,0.7,0.2c0.1,2,0.2,4.1-1.4,5.4c0.9,0.2,0.6-0.8,1.7-0.5c0,1.4-0.9,2-2.1,1.7
		c-0.2,1.1-1.4,1.1-0.9,2.8h-0.7c0-5.8,1.2-12.7,3.3-18.4C-73.3-34.6-76.6-29.6-76.7-27z"/>
	<path class="st1" d="M-65.5,71.8c4.6-2.9,9.9,1.3,10.4,5.4c-0.8,8.5-11.9,7.5-12.8,0.5C-68.1,76.2-67.4,72.9-65.5,71.8z"/>
	<path class="st1" d="M-73.6-39.5c0.2,1.3-0.9,2.5-1.4,3.8c0-0.3-0.6-0.2-0.9-0.2c1.1-2.2,1-5.6,2.6-7.3c0.9-5.1,4.9-9.1,7.1-13.7
		c1.9-1.3,2.8-3.5,4.7-4.7c-0.3,1.9-2,2.4-2.1,4.5C-68.4-52.7-70-45.1-73.6-39.5z"/>
	<path class="st1" d="M-29.7-83.9c-0.9-0.4-1.6,0.5-1.9-0.5c2.3,0,4.4-2.1,7.3-2.1C-24.9-84.5-28.3-85.2-29.7-83.9z"/>
	<path class="st1" d="M64.1-50.8c2.1-0.2,3.5,0.3,4.5,1.2C67.3-48.8,65-49.8,64.1-50.8z"/>
	<path class="st1" d="M78.7-0.3c4.2,5.5,1.6,14,0.2,21.3c-1,5.3-3.4,10.3-4.3,14.6c-0.4,0.6-1.3,0.8-1.7,1.4
		c-2.8,10.6-8.5,18.4-15.4,25c-1.5-0.3-2.1-0.1-3.3-0.7c-0.2,0.4-0.7,0.6-0.5,1.4c-1.1-0.1-2.1-0.5-2.1,0.9c1.4-0.1,2.2-0.2,3.8-0.5
		c-0.5,0.8-0.8,0.6-0.5,1.9c-9.8,11-25.7,18.6-42.5,20.4C5.2,87-2.3,86.6-9.4,85.7c-2.9-0.4-5.5-2.4-8.7-1.9
		c-6.2-2.6-13-4.5-17.9-8.3c-0.6,0-0.5,0.4-0.9,0c-3-2.4-6.9-3.9-9.4-6.8c-5.5-3.3-9.4-8.3-14.2-12.3c-0.1-0.8,0.4-0.7,0-1.2
		c-2.9-1.2-3-3.9-4.5-6.4c0.6-0.1,0.7-0.7,0.9-1.2c-2.8-3-2.5-10.1-7.3-10.4c2.5-2.8-0.2-6.6-2.1-8.7c0.9-1-0.3-2-0.7-2.6
		c0.3-1.8-0.8-3.1-0.2-4.5c-1.4-3.2-4.6-4.7-3.8-8.3c-0.7-0.2-0.9,0.2-1.4,0.2c-0.1-0.5-0.5-0.8-0.9-0.9C-81.3,8-81,2.3-80.9-3.4
		c0-2.6,0.8-5,0.9-7.3c0.1-2.2-0.9-4.8,1.2-6.1c0.7,0-0.3,1.5,0.7,1.2c0.6-0.2,0.9-0.7,0.9-1.4c0.1-1-1.1-0.8-0.7-2.1
		c1.9-0.3,2.2,1.9,4,2.8c-0.2,0.7-0.2,0.7,0,1.4c0.7,0.8,1.4,0.2,1.9,1.2c-1-0.3-1.1,0.2-1.7,0.2c0.8,1.7,1.5,3.8,3.5,3.5
		c0.2,1.1-1.3,0.2-0.7,0.9c0.2-0.7,0.8,1.1,0,0.2c-0.2,0.7,1.4,1.7,2.6,1.9L-69-6.3c1.3,3.3-2.7,9,0.5,10.9c0,5.2-1.4,8.6-0.2,14.4
		c-0.1,0.8-1.2,0.5-1.2,1.4c0.2,0.7,1.1,0.7,1.2,1.7c1.3,3.7,1.2,6.8,1.7,10.4c0.5,3.7,3.9,6.2,3.3,10.4c1.6,1,2.4,3.6,2.4,5.4
		c1.8-0.4,3.9,0.2,4.5,1.7c-0.1,1.1-1.1,1.4-1.2,2.6c2.2,4.3,6.4,6.5,8.5,10.9c1.5-0.2,1.5,1.1,2.1,1.7C-36.4,73.4-20.6,79-3.7,78
		c0.4-0.3,0.8-0.6,0.9-1.2c1.5-0.3,2.8-0.8,4.5-0.9c2-2.2,6-2.2,9-3.5c4-1.8,8.5-4.1,12.5-5.7c5.7-2.2,12-4.2,16.1-7.8
		c4.6-4.1,5.8-10.2,8.5-15.8c1.1-2.3,2.4-4.2,3.3-6.6c-1.3,0.8-2.5,1.6-3.1,3.1c-0.7-0.2-0.7,0.4-1.4,0.2c-1.2,1.9-3.1,3-5.4,3.8
		c-1.5,2.4-5,3.1-7.6,4.2c-2,0.9-3.5,3.5-5.7,3.5c0-1.4,1.5-1.3,1.9-1.2c0.1-0.7-0.7-0.5-0.5-1.4c0.9-1.4,2.2-1.8,3.3-3.1
		c0.5-0.6,0.6-1.6,1.2-2.4c2.1-2.6,5.7-4.1,7.8-6.6c1.1-1.4,1.7-3.1,3.1-4.3c1-0.9,2.3-1.1,3.3-1.9c2-1.5,3.2-4.6,5.2-5.9
		c1.8-2.9,3.9-5.4,6.8-7.1c0.5-1.2,1-2.7,0.2-4c-2.4,1.3-3.1,4.4-5.2,6.1c-2.3,4.6-6.8,7-10.2,10.6c-0.6,0-0.7,0.4-1.4,0.2
		c-4.1,4-9.8,7.6-16.5,8.3c2.3-3.2,6.2-4.8,9.4-7.1c0.1-2.1,2.2-2.4,3.8-3.1c0.1-0.4-0.3-0.5-0.2-0.9C46.1,22.3,50.3,15,55.8,9.2
		c1-3,5.4-8.1,5.4-11.6c0-1.5-1.5-3.3-1.9-5.2c-0.3-1.3-0.3-2.6-0.5-3.8c-0.2-1.6-0.6-2.9-0.7-4.3c-0.2-2.9,1.3-5.7,1.2-8.5
		c-0.3-6.7-5.2-10.7-6.9-15.3c-4.2-3.1-6.7-8.1-11.7-10.6c-0.1-0.8-0.7-1-0.9-1.7c-5.2-1.9-8.1-5.8-14.9-5.7
		c-0.7-0.9-1.5-1.7-2.6-2.1c-2.5,0.6-4.6-1.2-5.9-1.7c-1.9-0.7-5.9-0.5-7.8-0.7c-8-1-18,0.7-25.3,2.6c-2,0.5-4.1,1.9-5.4,2.4
		c-3.1,1.1-5.6,0.4-6.6,3.1c-0.8-0.1-0.9-0.6-1.7-0.2c-2.9,2.1-6.2,3.9-9.2,5.2c-2.6,5-8.3,7-10.9,12c-5.5,3.1-7.5,9.8-11.8,14.2
		c-1.3-1.3,1.4-4.3-0.5-5.9c1-2.3,1.9-6.5,1.4-9.9c1.8-0.8,2.8-3.9,0.5-4.7c-0.1-1.9,2-4.3,1.7-6.4c1.4-0.4,2,0.1,2.4,1.2
		c1-1.2,1-3.5,1.7-5c1.3-0.3,1,1,2.1,0.9c0.4-0.8,1.3-1.1,2.1-1.4c-0.5-1.8,1.2-1.4,1.7-2.1c-0.3-0.1-0.5-0.3-0.7-0.5
		c1.6,0.8,1.4-1.3,1.9-1.9c1.1-1.3,3.8-2.1,3.3-4.5c1.8,0.5,1.3,1.7,2.4,2.1c0.9-1.7,1.8-1.1,3.5-2.6c0.4,0.9,1.6,2.2,1.4,2.8
		c0-1-1.2,0.2-1.2,0.7c1.1,2.3,0.2,4.6,0.5,6.6c2-1,2.2-3.7,3.8-5.2c-0.2-1.6-1.6-2.6-1.7-4.5c1.1-1.1,2.6-2.1,4.5-1.7
		c2.2-1.2,2.5-4.3,3.5-6.6c1.1-0.1,1.3-0.1,2.4-0.5c0-0.6,0-1.1,0.2-1.4c2.6-0.3,3.3,1.7,5.7,0.9c3.7,3.6,9.1,1.4,14.2,2.1
		c0.3,1.8,1.6,1.4,3.1,2.1c0.5-0.8-0.1-1.2,0.2-2.1c0.3-0.5,1.4-0.2,1.4-0.9c1.6,0.6,3.5,2,1.9,2.6c2,0.6,3.1,1.2,5,1.4
		c0.3-1,1.1-0.7,0.7-2.1c3.4,0.2,5.7,0.3,8.3,0.9c0.4-0.4,0.1-1.5,0.7-1.7c1.6-0.7,1.9,1.4,4,0.9c0.4-0.5,0.4-2-0.2-2.1
		c1.4-1,2.3,0.2,4.3,0c0.5,0.4,1.1,0.7,1.7,0.9c5.2,0.2,7.8,3.4,11.1,5.2c1.3,0.7,2.6,1.3,3.5,2.1c7.3,6.3,13,14.8,19.6,21.5
		c1.1,2.6,3.3,4.1,5,6.1c0.7-0.2,1-1.5,1.7-0.9c1.9,1.1,0.2,6,3.1,5.7c2.3-0.3,1.4-4.3,1.7-6.8c0.1-1.4,0.9-2.7,0.9-4
		c0-1.9-1-3.3,0.2-4.3c2.2,1.2,2.9,4.3,3.3,6.6c1.2,6.2,0.9,13.7,1.4,20.1c0,0.6,0.5,1.3,0.5,1.9c0,1.3-0.7,2.5-0.7,3.8
		C76.6-8.7,81.1-4.9,78.7-0.3z M-57.3-45.1c-0.8,0.1-0.6-0.8-1.4-0.7c-0.6,0.5-0.5,1.2-0.7,1.7c0.4,0.3,1.3-0.1,2.1,0.2
		C-57.5-44.7-57.5-44.4-57.3-45.1z M-37.9-52.9c-0.5,0.1-0.7,0.6-1.4,0.5c-0.1,0.4,0.2,1.2-0.5,0.9c0.8,0.8-0.6,0.6-0.5,1.4
		c0.8,0.1,1.1-0.3,1.7-0.5C-39.2-51.5-37.7-51.2-37.9-52.9z M-11-67.1c0,0.3,0,0.7-0.2,0.7c0.1,0.6,1,0.1,1.2,0
		C-10.3-66.7-10.4-67.1-11-67.1z"/>
	<path class="st1" d="M-15.5-67.1C-16.8-63.3-11.9-66.4-15.5-67.1L-15.5-67.1z"/>
</symbol>
<g id="Layer_1" class="st2">
	<g id="Active_icons_4_" class="st3">
		<g id="Layer_5_copy_4_">
			<ellipse class="st4" cx="23" cy="25.2" rx="16.9" ry="16.7"/>
		</g>
		<g id="Facebook_5_">
			<path class="st5" d="M26.5,41.1c-0.2-3.6-0.3-7.2-0.5-10.8h4l0.8-4.8h-4.7v-3.1c0-1.3,0.7-2.6,2.8-2.6H31v-4.1
				c0,0-1.9-0.3-3.8-0.3c-3.9,0-6.4,2.3-6.4,6.5v3.7h-4.3v4.8h4.3c-0.1,3.6-0.2,7.3-0.3,10.9C20.4,41.5,26.5,41.4,26.5,41.1z"/>
		</g>
		
			<use xlink:href="#Grime_Vector_Pack_4"  width="162" height="173" id="XMLID_10_" x="-81" y="-86.5" transform="matrix(2.802714e-03 -0.231 -0.2296 -2.493821e-03 25.0322 25.0145)" style="overflow:visible;"/>
	</g>
	<g id="Active_icons_5_">
		<g id="Layer_5_copy_5_" class="st3">
			<ellipse class="st4" cx="23" cy="25.2" rx="16.9" ry="16.7"/>
		</g>
		<g id="instagram_copy_1_" class="st3">
			<g>
				<path class="st1" d="M33.6,29.7c-0.1,1.6-0.4,3-1.6,4.2c-1.2,1.2-2.6,1.5-4.2,1.6c-1.7,0.1-6.6,0.1-8.2,0s-3-0.4-4.2-1.6
					c-1.2-1.2-1.5-2.6-1.6-4.2c-0.1-1.7-0.1-6.6,0-8.2s0.4-3,1.6-4.2s2.6-1.5,4.2-1.6c1.7-0.1,6.6-0.1,8.2,0s3,0.4,4.2,1.6
					s1.5,2.6,1.6,4.2C33.7,23.1,33.7,28,33.6,29.7z M31.9,25.5c0-1.5,0.1-4.6-0.4-5.9c-0.4-0.9-1-1.6-1.9-1.9
					c-1.3-0.5-4.4-0.4-5.9-0.4s-4.6-0.1-5.9,0.4c-0.9,0.4-1.6,1-1.9,1.9c-0.5,1.3-0.4,4.4-0.4,5.9s-0.1,4.6,0.4,5.9
					c0.4,0.9,1,1.6,1.9,1.9c1.3,0.5,4.4,0.4,5.9,0.4s4.6,0.1,5.9-0.4c0.9-0.4,1.6-1,1.9-1.9C32,30.1,31.9,27,31.9,25.5z M28.8,25.5
					c0,2.8-2.3,5.1-5.1,5.1s-5.1-2.3-5.1-5.1s2.3-5.1,5.1-5.1S28.8,22.7,28.8,25.5z M27.1,25.5c0-1.8-1.5-3.3-3.3-3.3
					s-3.3,1.5-3.3,3.3s1.5,3.3,3.3,3.3C25.6,28.9,27.1,27.4,27.1,25.5z M29.1,21.4c-0.7,0-1.2-0.5-1.2-1.2s0.5-1.2,1.2-1.2
					s1.2,0.5,1.2,1.2S29.7,21.4,29.1,21.4z"/>
			</g>
		</g>
		
			<use xlink:href="#Grime_Vector_Pack_4"  width="162" height="173" id="XMLID_12_" x="-81" y="-86.5" transform="matrix(2.802714e-03 -0.231 -0.2296 -2.493821e-03 25.0322 25.0145)" style="display:inline;overflow:visible;"/>
	</g>
	<g id="Active_icons_6_">
		<g id="Layer_5_copy_6_" class="st3">
			<ellipse class="st4" cx="23" cy="25.2" rx="16.9" ry="16.7"/>
		</g>
		<g id="Pinterest_copy_1_" class="st3">
			<g>
				<path class="st1" d="M24.1,34.6c-0.9,0-1.8-0.1-2.7-0.4c0.4-0.6,0.9-1.6,1.1-2.4c0.1-0.4,0.6-2.1,0.6-2.1c0.3,0.6,1.2,1,2.1,1
					c2.7,0,4.7-2.5,4.7-5.6c0-3-2.4-5.2-5.5-5.2c-3.9,0-5.9,2.6-5.9,5.4c0,1.3,0.7,3,1.8,3.5c0.2,0.1,0.3,0,0.3-0.1s0.2-0.7,0.3-1
					c0-0.1,0-0.2-0.1-0.3c-0.4-0.5-0.7-1.3-0.7-2.1c0-2,1.5-3.9,4.1-3.9c2.2,0,3.8,1.5,3.8,3.7c0,2.4-1.2,4.1-2.8,4.1
					c-0.9,0-1.5-0.7-1.3-1.6c0.3-1.1,0.7-2.2,0.7-3c0-0.7-0.4-1.3-1.1-1.3c-0.9,0-1.6,0.9-1.6,2.2c0,0.8,0.3,1.3,0.3,1.3
					s-0.9,3.8-1.1,4.5c-0.2,0.8-0.1,1.9,0,2.6c-3.3-1.3-5.7-4.6-5.7-8.4c0-5,4-9,9-9s9,4,9,9S29,34.6,24.1,34.6z"/>
			</g>
		</g>
		
			<use xlink:href="#Grime_Vector_Pack_4"  width="162" height="173" id="XMLID_14_" x="-81" y="-86.5" transform="matrix(2.802714e-03 -0.231 -0.2296 -2.493821e-03 25.0322 25.0145)" style="display:inline;overflow:visible;"/>
	</g>
	<g id="Active_icons_7_">
		<g id="Layer_5_copy_7_" class="st3">
			<ellipse class="st4" cx="23" cy="25.2" rx="16.9" ry="16.7"/>
		</g>
		<g id="Twitter_copy_1_" class="st3">
			<g>
				<path class="st1" d="M32.2,21.8c0,5.4-4.1,11.7-11.7,11.7c-2.3,0-4.5-0.7-6.3-1.8c0.3,0,0.6,0.1,1,0.1c1.9,0,3.7-0.6,5.1-1.8
					c-1.8,0-3.3-1.2-3.8-2.8c0.3,0,0.5,0.1,0.8,0.1c0.4,0,0.7-0.1,1.1-0.1c-1.9-0.4-3.3-2-3.3-4v-0.1c0.5,0.3,1.2,0.5,1.9,0.5
					c-1.1-0.7-1.8-2-1.8-3.4c0-0.8,0.2-1.5,0.6-2.1c2,2.5,5.1,4.1,8.5,4.3c-0.1-0.3-0.1-0.6-0.1-0.9c0-2.3,1.8-4.1,4.1-4.1
					c1.2,0,2.2,0.5,3,1.3c0.9-0.2,1.8-0.5,2.6-1c-0.3,1-1,1.8-1.8,2.3c0.8-0.1,1.6-0.3,2.4-0.6c-0.6,0.8-1.3,1.5-2.1,2.1
					C32.2,21.4,32.2,21.6,32.2,21.8z"/>
			</g>
		</g>
		
			<use xlink:href="#Grime_Vector_Pack_4"  width="162" height="173" id="XMLID_16_" x="-81" y="-86.5" transform="matrix(2.802714e-03 -0.231 -0.2296 -2.493821e-03 25.0322 25.0145)" style="display:inline;overflow:visible;"/>
	</g>
</g>
<g id="Layer_2">
	<g id="Unactive_Icons_4_">
		<g id="Layer_5_4_">
			<ellipse class="st1" cx="23" cy="25.2" rx="16.9" ry="16.7"/>
		</g>
		<g id="Facebook_4_">
			<path class="st0" d="M26.5,41.1c-0.2-3.6-0.3-7.2-0.5-10.8h4l0.8-4.8h-4.7v-3.1c0-1.3,0.7-2.6,2.8-2.6H31v-4.1
				c0,0-1.9-0.3-3.8-0.3c-3.9,0-6.4,2.3-6.4,6.5v3.7h-4.3v4.8h4.3c-0.1,3.6-0.2,7.3-0.3,10.9C20.4,41.5,26.5,41.4,26.5,41.1z"/>
		</g>
		
			<use xlink:href="#Grime_Vector_Pack_3"  width="162" height="173" id="XMLID_9_" x="-81" y="-86.5" transform="matrix(2.802714e-03 -0.231 -0.2296 -2.493821e-03 25.0322 25.0145)" style="overflow:visible;"/>
	</g>
	<g id="Unactive_Icons_5_" class="st2">
		<g id="Layer_5_5_" class="st3">
			<ellipse class="st1" cx="23" cy="25.2" rx="16.9" ry="16.7"/>
		</g>
		<g id="instagram_1_" class="st3">
			<g>
				<path class="st0" d="M33.6,29.7c-0.1,1.6-0.4,3-1.6,4.2c-1.2,1.2-2.6,1.5-4.2,1.6c-1.7,0.1-6.6,0.1-8.2,0s-3-0.4-4.2-1.6
					c-1.2-1.2-1.5-2.6-1.6-4.2c-0.1-1.7-0.1-6.6,0-8.2s0.4-3,1.6-4.2s2.6-1.5,4.2-1.6c1.7-0.1,6.6-0.1,8.2,0s3,0.4,4.2,1.6
					s1.5,2.6,1.6,4.2C33.7,23.1,33.7,28,33.6,29.7z M31.9,25.5c0-1.5,0.1-4.6-0.4-5.9c-0.4-0.9-1-1.6-1.9-1.9
					c-1.3-0.5-4.4-0.4-5.9-0.4s-4.6-0.1-5.9,0.4c-0.9,0.4-1.6,1-1.9,1.9c-0.5,1.3-0.4,4.4-0.4,5.9s-0.1,4.6,0.4,5.9
					c0.4,0.9,1,1.6,1.9,1.9c1.3,0.5,4.4,0.4,5.9,0.4s4.6,0.1,5.9-0.4c0.9-0.4,1.6-1,1.9-1.9C32,30.1,31.9,27,31.9,25.5z M28.8,25.5
					c0,2.8-2.3,5.1-5.1,5.1s-5.1-2.3-5.1-5.1s2.3-5.1,5.1-5.1S28.8,22.7,28.8,25.5z M27.1,25.5c0-1.8-1.5-3.3-3.3-3.3
					s-3.3,1.5-3.3,3.3s1.5,3.3,3.3,3.3C25.6,28.9,27.1,27.4,27.1,25.5z M29.1,21.4c-0.7,0-1.2-0.5-1.2-1.2s0.5-1.2,1.2-1.2
					s1.2,0.5,1.2,1.2S29.7,21.4,29.1,21.4z"/>
			</g>
		</g>
		
			<use xlink:href="#Grime_Vector_Pack_3"  width="162" height="173" id="XMLID_11_" x="-81" y="-86.5" transform="matrix(2.802714e-03 -0.231 -0.2296 -2.493821e-03 25.0322 25.0145)" style="display:inline;overflow:visible;"/>
	</g>
	<g id="Unactive_Icons_6_" class="st2">
		<g id="Layer_5_6_" class="st3">
			<ellipse class="st1" cx="23" cy="25.2" rx="16.9" ry="16.7"/>
		</g>
		<g id="Pinterest_3_" class="st3">
			<g>
				<path class="st0" d="M24.1,34.6c-0.9,0-1.8-0.1-2.7-0.4c0.4-0.6,0.9-1.6,1.1-2.4c0.1-0.4,0.6-2.1,0.6-2.1c0.3,0.6,1.2,1,2.1,1
					c2.7,0,4.7-2.5,4.7-5.6c0-3-2.4-5.2-5.5-5.2c-3.9,0-5.9,2.6-5.9,5.4c0,1.3,0.7,3,1.8,3.5c0.2,0.1,0.3,0,0.3-0.1s0.2-0.7,0.3-1
					c0-0.1,0-0.2-0.1-0.3c-0.4-0.5-0.7-1.3-0.7-2.1c0-2,1.5-3.9,4.1-3.9c2.2,0,3.8,1.5,3.8,3.7c0,2.4-1.2,4.1-2.8,4.1
					c-0.9,0-1.5-0.7-1.3-1.6c0.3-1.1,0.7-2.2,0.7-3c0-0.7-0.4-1.3-1.1-1.3c-0.9,0-1.6,0.9-1.6,2.2c0,0.8,0.3,1.3,0.3,1.3
					s-0.9,3.8-1.1,4.5c-0.2,0.8-0.1,1.9,0,2.6c-3.3-1.3-5.7-4.6-5.7-8.4c0-5,4-9,9-9s9,4,9,9S29,34.6,24.1,34.6z"/>
			</g>
		</g>
		
			<use xlink:href="#Grime_Vector_Pack_3"  width="162" height="173" id="XMLID_13_" x="-81" y="-86.5" transform="matrix(2.802714e-03 -0.231 -0.2296 -2.493821e-03 25.0322 25.0145)" style="display:inline;overflow:visible;"/>
	</g>
	<g id="Unactive_Icons_7_" class="st2">
		<g id="Layer_5_7_" class="st3">
			<ellipse class="st1" cx="23" cy="25.2" rx="16.9" ry="16.7"/>
		</g>
		<g id="Twitter_3_" class="st3">
			<g>
				<path class="st0" d="M32.2,21.8c0,5.4-4.1,11.7-11.7,11.7c-2.3,0-4.5-0.7-6.3-1.8c0.3,0,0.6,0.1,1,0.1c1.9,0,3.7-0.6,5.1-1.8
					c-1.8,0-3.3-1.2-3.8-2.8c0.3,0,0.5,0.1,0.8,0.1c0.4,0,0.7-0.1,1.1-0.1c-1.9-0.4-3.3-2-3.3-4v-0.1c0.5,0.3,1.2,0.5,1.9,0.5
					c-1.1-0.7-1.8-2-1.8-3.4c0-0.8,0.2-1.5,0.6-2.1c2,2.5,5.1,4.1,8.5,4.3c-0.1-0.3-0.1-0.6-0.1-0.9c0-2.3,1.8-4.1,4.1-4.1
					c1.2,0,2.2,0.5,3,1.3c0.9-0.2,1.8-0.5,2.6-1c-0.3,1-1,1.8-1.8,2.3c0.8-0.1,1.6-0.3,2.4-0.6c-0.6,0.8-1.3,1.5-2.1,2.1
					C32.2,21.4,32.2,21.6,32.2,21.8z"/>
			</g>
		</g>
		
			<use xlink:href="#Grime_Vector_Pack_3"  width="162" height="173" id="XMLID_15_" x="-81" y="-86.5" transform="matrix(2.802714e-03 -0.231 -0.2296 -2.493821e-03 25.0322 25.0145)" style="display:inline;overflow:visible;"/>
	</g>
</g>
</svg>
