<?xml version="1.0" encoding="utf-8"?>
<!-- Generator: Adobe Illustrator 20.1.0, SVG Export Plug-In . SVG Version: 6.00 Build 0)  -->
<svg version="1.1" id="Layer_1" xmlns="http://www.w3.org/2000/svg" xmlns:xlink="http://www.w3.org/1999/xlink" x="0px" y="0px"
	 viewBox="0 0 50 50" style="enable-background:new 0 0 50 50;" xml:space="preserve">
<style type="text/css">
	.st0{fill:#ED1E26;}
</style>
<symbol  id="Grime_Vector_Pack_04" viewBox="-81.3 -86.5 162.6 173">
	<path class="st0" d="M-65.2,71.8c4.6-2.9,9.9,1.3,10.4,5.4c-0.8,8.5-11.9,7.5-12.8,0.5C-67.8,76.2-67.1,72.9-65.2,71.8z
		 M-22.8,56.9c0.6,0,1.1,0.1,1.4,0.5C-21.7,57.9-22.7,57.8-22.8,56.9z M-30.1,55.2c-1.9,0-2.4-1.3-3.8-1.7
		C-32.5,53.1-30.5,53.9-30.1,55.2z M-81.3,43.9c0.5-0.8,1.4-1.3,2.8-1.2C-77.5,44-81,46.1-81.3,43.9z M-1,19.1
		c-0.6,0.5-1.5,0.8-2.8,0.7c-0.8-2.4-3.1-4.3-3.8-6.1C-8.7,11-9,5.5-7.4,4C-1.7,6-0.7,12.5-1,19.1z M-28.9,12.9
		c1.2-0.2,1.5,0.6,2.4,1.2v1.7C-29.3,18.9-32.2,13.4-28.9,12.9z M-67.6-10.7c0.2,0.1,0.5,1.4-0.5,1.4C-68-9.7-68.5-10.9-67.6-10.7z
		 M-55.3-10.4v0.7C-56-9.9-56-9.4-56.5-9.5C-56.7-10.4-55.7-10.8-55.3-10.4z M-76.4-27c0.3,0,0.7,0,0.7,0.2c0.1,2,0.2,4.1-1.4,5.4
		c0.9,0.2,0.6-0.8,1.7-0.5c0,1.4-0.9,2-2.1,1.7c-0.2,1.1-1.4,1.1-0.9,2.8h-0.7c0-5.8,1.2-12.7,3.3-18.4C-73-34.6-76.3-29.6-76.4-27z
		 M49.3-23.4c-0.6,0-0.7-0.4-1.2-0.5c-0.1-0.4,0.3-0.5,0.2-0.9h0.9C49.6-24.5,49.6-23.7,49.3-23.4z M54.7-31.5
		c-0.3-0.3-0.3-0.9,0-1.2h0.9C55.8-31.7,55.4-31.5,54.7-31.5z M-73.3-39.5c0.2,1.3-0.9,2.5-1.4,3.8c0-0.3-0.6-0.2-0.9-0.2
		c1.1-2.2,1-5.6,2.6-7.3c0.9-5.1,4.9-9.1,7.1-13.7c1.9-1.3,2.8-3.5,4.7-4.7c-0.3,1.9-2,2.4-2.1,4.5C-68.1-52.7-69.7-45.1-73.3-39.5z
		 M32-36.2c-0.8,0.6-2.2,0.1-2.1-0.9C30.5-38.3,32.2-37.7,32-36.2z M64.4-50.8c2.1-0.2,3.5,0.3,4.5,1.2
		C67.6-48.8,65.3-49.8,64.4-50.8z M20-73c0.1-0.5,1.2-1.1,1.4-0.7C20.8-73.6,20.9-72.8,20-73z M-1-75.6c1-0.9,2.2,0.7,1.4,1.7
		C-0.7-73.8-0.7-74.9-1-75.6z M79-0.3c4.2,5.5,1.6,14,0.2,21.3c-1,5.3-3.4,10.3-4.3,14.6c-0.4,0.6-1.3,0.8-1.7,1.4
		c-2.8,10.6-8.5,18.4-15.4,25c-1.5-0.3-2.1-0.1-3.3-0.7c-0.2,0.4-0.7,0.6-0.5,1.4c-1.1-0.1-2.1-0.5-2.1,0.9c1.4-0.1,2.2-0.2,3.8-0.5
		c-0.5,0.8-0.8,0.6-0.5,1.9c-9.8,11-25.7,18.6-42.5,20.4C5.5,87-2,86.6-9.1,85.7c-2.9-0.4-5.5-2.4-8.7-1.9c-6.2-2.6-13-4.5-17.9-8.3
		c-0.6,0-0.5,0.4-0.9,0c-3-2.4-6.9-3.9-9.4-6.8c-5.5-3.3-9.4-8.3-14.2-12.3c-0.1-0.8,0.4-0.7,0-1.2c-2.9-1.2-3-3.9-4.5-6.4
		c0.6-0.1,0.7-0.7,0.9-1.2c-2.8-3-2.5-10.1-7.3-10.4c2.5-2.8-0.2-6.6-2.1-8.7c0.9-1-0.3-2-0.7-2.6c0.3-1.8-0.8-3.1-0.2-4.5
		c-1.4-3.2-4.6-4.7-3.8-8.3c-0.7-0.2-0.9,0.2-1.4,0.2c-0.1-0.5-0.5-0.8-0.9-0.9C-81,8-80.7,2.3-80.6-3.4c0-2.6,0.8-5,0.9-7.3
		c0.1-2.2-0.9-4.8,1.2-6.1c0.7,0-0.3,1.5,0.7,1.2c0.6-0.2,0.9-0.7,0.9-1.4c0.1-1-1.1-0.8-0.7-2.1c1.9-0.3,2.2,1.9,4,2.8
		c-0.2,0.7-0.2,0.7,0,1.4c0.7,0.8,1.4,0.2,1.9,1.2c-1-0.3-1.1,0.2-1.7,0.2c0.8,1.7,1.5,3.8,3.5,3.5c0.2,1.1-1.3,0.2-0.7,0.9
		c0.2-0.7,0.8,1.1,0,0.2C-70.8-8.2-69.2-7.2-68-7c-0.2,0.2-0.5,0.5-0.7,0.7c1.3,3.3-2.7,9,0.5,10.9c0,5.2-1.4,8.6-0.2,14.4
		c-0.1,0.8-1.2,0.5-1.2,1.4c0.2,0.7,1.1,0.7,1.2,1.7c1.3,3.7,1.2,6.8,1.7,10.4c0.5,3.7,3.9,6.2,3.3,10.4c1.6,1,2.4,3.6,2.4,5.4
		c1.8-0.4,3.9,0.2,4.5,1.7c-0.1,1.1-1.1,1.4-1.2,2.6c2.2,4.3,6.4,6.5,8.5,10.9c1.5-0.2,1.5,1.1,2.1,1.7C-36.1,73.4-20.3,79-3.4,78
		c0.4-0.3,0.8-0.6,0.9-1.2C-1,76.5,0.3,76,2,75.9c2-2.2,6-2.2,9-3.5c4-1.8,8.5-4.1,12.5-5.7c5.7-2.2,12-4.2,16.1-7.8
		c4.6-4.1,5.8-10.2,8.5-15.8c1.1-2.3,2.4-4.2,3.3-6.6c-1.3,0.8-2.5,1.6-3.1,3.1c-0.7-0.2-0.7,0.4-1.4,0.2c-1.2,1.9-3.1,3-5.4,3.8
		c-1.5,2.4-5,3.1-7.6,4.2c-2,0.9-3.5,3.5-5.7,3.5c0-1.4,1.5-1.3,1.9-1.2c0.1-0.7-0.7-0.5-0.5-1.4c0.9-1.4,2.2-1.8,3.3-3.1
		c0.5-0.6,0.6-1.6,1.2-2.4c2.1-2.6,5.7-4.1,7.8-6.6c1.1-1.4,1.7-3.1,3.1-4.3c1-0.9,2.3-1.1,3.3-1.9c2-1.5,3.2-4.6,5.2-5.9
		c1.8-2.9,3.9-5.4,6.8-7.1c0.5-1.2,1-2.7,0.2-4c-2.4,1.3-3.1,4.4-5.2,6.1c-2.3,4.6-6.8,7-10.2,10.6c-0.6,0-0.7,0.4-1.4,0.2
		c-4.1,4-9.8,7.6-16.5,8.3c2.3-3.2,6.2-4.8,9.4-7.1c0.1-2.1,2.2-2.4,3.8-3.1c0.1-0.4-0.3-0.5-0.2-0.9C46.4,22.3,50.6,15,56.1,9.2
		c1-3,5.4-8.1,5.4-11.6c0-1.5-1.5-3.3-1.9-5.2c-0.3-1.3-0.3-2.6-0.5-3.8c-0.2-1.6-0.6-2.9-0.7-4.3c-0.2-2.9,1.3-5.7,1.2-8.5
		c-0.3-6.7-5.2-10.7-6.9-15.3C48.5-42.6,46-47.6,41-50.1c-0.1-0.8-0.7-1-0.9-1.7c-5.2-1.9-8.1-5.8-14.9-5.7
		c-0.7-0.9-1.5-1.7-2.6-2.1c-2.5,0.6-4.6-1.2-5.9-1.7c-1.9-0.7-5.9-0.5-7.8-0.7c-8-1-18,0.7-25.3,2.6c-2,0.5-4.1,1.9-5.4,2.4
		c-3.1,1.1-5.6,0.4-6.6,3.1c-0.8-0.1-0.9-0.6-1.7-0.2c-2.9,2.1-6.2,3.9-9.2,5.2c-2.6,5-8.3,7-10.9,12c-5.5,3.1-7.5,9.8-11.8,14.2
		c-1.3-1.3,1.4-4.3-0.5-5.9c1-2.3,1.9-6.5,1.4-9.9c1.8-0.8,2.8-3.9,0.5-4.7c-0.1-1.9,2-4.3,1.7-6.4c1.4-0.4,2,0.1,2.4,1.2
		c1-1.2,1-3.5,1.7-5c1.3-0.3,1,1,2.1,0.9c0.4-0.8,1.3-1.1,2.1-1.4c-0.5-1.8,1.2-1.4,1.7-2.1c-0.3-0.1-0.5-0.3-0.7-0.5
		c1.6,0.8,1.4-1.3,1.9-1.9c1.1-1.3,3.8-2.1,3.3-4.5c1.8,0.5,1.3,1.7,2.4,2.1c0.9-1.7,1.8-1.1,3.5-2.6c0.4,0.9,1.6,2.2,1.4,2.8
		c0-1-1.2,0.2-1.2,0.7c1.1,2.3,0.2,4.6,0.5,6.6c2-1,2.2-3.7,3.8-5.2c-0.2-1.6-1.6-2.6-1.7-4.5c1.1-1.1,2.6-2.1,4.5-1.7
		c2.2-1.2,2.5-4.3,3.5-6.6c1.1-0.1,1.3-0.1,2.4-0.5c0-0.6,0-1.1,0.2-1.4c2.6-0.3,3.3,1.7,5.7,0.9c3.7,3.6,9.1,1.4,14.2,2.1
		c0.3,1.8,1.6,1.4,3.1,2.1c0.5-0.8-0.1-1.2,0.2-2.1c0.3-0.5,1.4-0.2,1.4-0.9c1.6,0.6,3.5,2,1.9,2.6c2,0.6,3.1,1.2,5,1.4
		c0.3-1,1.1-0.7,0.7-2.1c3.4,0.2,5.7,0.3,8.3,0.9c0.4-0.4,0.1-1.5,0.7-1.7c1.6-0.7,1.9,1.4,4,0.9c0.4-0.5,0.4-2-0.2-2.1
		c1.4-1,2.3,0.2,4.3,0c0.5,0.4,1.1,0.7,1.7,0.9c5.2,0.2,7.8,3.4,11.1,5.2c1.3,0.7,2.6,1.3,3.5,2.1c7.3,6.3,13,14.8,19.6,21.5
		c1.1,2.6,3.3,4.1,5,6.1c0.7-0.2,1-1.5,1.7-0.9c1.9,1.1,0.2,6,3.1,5.7c2.3-0.3,1.4-4.3,1.7-6.8c0.1-1.4,0.9-2.7,0.9-4
		c0-1.9-1-3.3,0.2-4.3c2.2,1.2,2.9,4.3,3.3,6.6c1.2,6.2,0.9,13.7,1.4,20.1c0,0.6,0.5,1.3,0.5,1.9c0,1.3-0.7,2.5-0.7,3.8
		C76.9-8.7,81.4-4.9,79-0.3z M-57-45.1c-0.8,0.1-0.6-0.8-1.4-0.7c-0.6,0.5-0.5,1.2-0.7,1.7c0.4,0.3,1.3-0.1,2.1,0.2
		C-57.2-44.7-57.2-44.4-57-45.1z M-37.6-52.9c-0.5,0.1-0.7,0.6-1.4,0.5c-0.1,0.4,0.2,1.2-0.5,0.9c0.8,0.8-0.6,0.6-0.5,1.4
		c0.8,0.1,1.1-0.3,1.7-0.5C-38.9-51.5-37.4-51.2-37.6-52.9z M-15.2-67.1C-16.5-63.3-11.6-66.4-15.2-67.1L-15.2-67.1z M-10.7-67.1
		c0,0.3,0,0.7-0.2,0.7c0.1,0.6,1,0.1,1.2,0C-10-66.7-10.1-67.1-10.7-67.1z M-65.5-19.4h0.9c-0.1,0.4,0.3,0.5,0.2,0.9
		c-0.3,0-0.5,0.1-0.7,0.2c-0.1-0.5,0.3-0.5,0.5-0.7C-64.7-19.3-65.5-19-65.5-19.4z M-33.6-81.7c-0.5,0.2-1.2,0.2-1.7,0.5
		c-4.9,3.9-10.6,5.7-14.6,10.4c-4.3,1.1-5.4,6.7-9.9,6.8c1.9-2.3,3.4-5.1,5.7-6.8c0.6-0.5,1.5-0.5,2.1-0.9c1.2-0.9,2.1-2.4,3.3-3.3
		c0.7-0.5,1.6-1,2.4-1.4c4.1-2.6,9.3-6.1,13.9-7.1c0.3,0,0.6,0.1,0.2,0.2C-32.8-82.9-33.1-82.3-33.6-81.7z M-29.4-83.9
		c-0.9-0.4-1.6,0.5-1.9-0.5c2.3,0,4.4-2.1,7.3-2.1C-24.6-84.5-28-85.2-29.4-83.9z"/>
</symbol>
<use xlink:href="#Grime_Vector_Pack_04"  width="162.6" height="173" id="XMLID_1_" x="-81.3" y="-86.5" transform="matrix(3.386540e-03 -0.295 -0.2774 -3.184947e-03 25.0139 24.8015)" style="overflow:visible;opacity:0.75;"/>
</svg>
